# xmcd
#
# Track frame offsets:
#	150
#	19123
#	35195
#	49887
#	68076
#	85428
#	101341
#	117116
#	135711
#	152444
#	171286
#	191276
#	211696
#	229165
#	247178
#
# Disc length: 3489 seconds
#
# Revision: 2
# Processed by: cddbd v1.5.2PL0 Copyright (c) Steve Scherf et al.
# Submitted via: audiograbber 1.83.01
#
DISCID=c80d9f0f
DTITLE=chartbuster - CB-E3-12R
DYEAR=1900
DGENRE=karaoke
TTITLE0=Alan Jackson - Drive (For Daddy Gene)
TTITLE1=Kenny Chesney - Good Stuff, The
TTITLE2=Jamie O'Neal - When I Think About Angels
TTITLE3=Anthony Smith - If That Ain't Country
TTITLE4=Darryl Worley - I Miss My Friend
TTITLE5=Cyndi Thompson - What I Really Meant To Say
TTITLE6=Brad Paisley - I'm Gonna Miss Her
TTITLE7=Joe Nichols - Impossible
TTITLE8=Patty Loveless - That's The Kind Of Mood I'm In
TTITLE9=Travis Tritt - Modern Day Bonnie And Clyde
TTITLE10=Montgomery Gentry - My Town
TTITLE11=Martina McBride - Where Would You Be
TTITLE12=Blake Shelton - Ol' Red
TTITLE13=Keith Urban - Somebody Like You
TTITLE14=Trick Pony - On A Mission
EXTD=
EXTT0=
EXTT1=
EXTT2=
EXTT3=
EXTT4=
EXTT5=
EXTT6=
EXTT7=
EXTT8=
EXTT9=
EXTT10=
EXTT11=
EXTT12=
EXTT13=
EXTT14=
PLAYORDER=
